PathFileType	4	(X/Y/Z)	pose_F01_0-83.trc
DataRate	CameraRate	NumFrames	NumMarkers	Units	OrigDataRate	OrigDataStartFrame	OrigNumFrames
30	30	10	21	m	30	71	83
Frame#	Time	CHip			RHip			RKnee			RAnkle			RBigToe			RSmallToe			RHeel			LHip			LKnee			LAnkle			LBigToe			LSmallToe			LHeel			Neck			Nose			RShoulder			RElbow			RWrist			LShoulder			LElbow			LWrist			
		X1	Y1	Z1	X2	Y2	Z2	X3	Y3	Z3	X4	Y4	Z4	X5	Y5	Z5	X6	Y6	Z6	X7	Y7	Z7	X8	Y8	Z8	X9	Y9	Z9	X10	Y10	Z10	X11	Y11	Z11	X12	Y12	Z12	X13	Y13	Z13	X14	Y14	Z14	X15	Y15	Z15	X16	Y16	Z16	X17	Y17	Z17	X18	Y18	Z18	X19	Y19	Z19	X20	Y20	Z20	X21	Y21	Z21	
71	2.3666666666666667	-0.21211782155062797	1.835279331272568	-0.5668939852704259	-0.2302610773257046	1.8325640409682793	-0.5079154869843238	-0.2387695038603838	1.7009121123738957	-0.4888053203366315													-0.19610756269937268	1.8377572780636617	-0.6183466156608566	-0.2005890221464109	1.7093218979017542	-0.5618817048324304	-0.20140218413803646	1.5925041761648302	-0.5342729038662963	-0.19917963373843786	1.5662632151891247	-0.6056747725167462	-0.18755980378447312	1.575139923206218	-0.6061079445285871	-0.20941344963352124	1.603583599768741	-0.5126171824388244	-0.21316904956914293	1.9837293605457302	-0.5736064597900007	-0.21675677772595897	2.0491417589941263	-0.6184784029903037	-1.7518853617204777	1.8894085918361332	1.1848745326228856	-0.24748722995085895	1.8959749665534773	-0.4878691619955111	-0.24094182702793626	1.9365740796788726	-0.5727872862063685	-0.18194189083665538	1.985923451281251	-0.6487539660387983	-0.17328548343779954	1.921316808915191	-0.6615281839502858	-0.17304163024091546	1.8503554463054126	-0.6763588723140604
72	2.4	-0.20899106544843354	1.833884428566882	-0.5659809946191424	-0.23015582030726892	1.8323094767255657	-0.5079946494692755	-0.23769476740286366	1.7013438433814851	-0.49007587019350074													-0.19293559749814088	1.8361276322308793	-0.6174484217643975	-0.198457566700947	1.709171548750922	-0.5641166001697088	-0.2014971794889823	1.5921737414139765	-0.5363931729267136	-0.20129391183286818	1.5660689717743679	-0.6035614154925203	-0.18851528307457882	1.5750478424168317	-0.6092914444463107	-0.20941344963352124	1.603583599768741	-0.5126171824388244	-0.21017320303264564	1.9813248179542622	-0.5724502512615347	-0.2145566500759528	2.049260114012796	-0.6207299462982327	-1.7506859786888342	1.8893248117093577	1.1838115643356286	-0.2463218422819463	1.8972136948463052	-0.49336188716829665	-0.23695602726487217	1.9380505970100044	-0.5779354184304383	-0.17774738536109505	1.9835006821462926	-0.6528745832686668	-0.16937556135058313	1.9083992334901547	-0.6575450503188981	-0.16871945828768387	1.835613533604028	-0.6805373615886684
73	2.433333333333333	-0.20793638617777757	1.8361542941154667	-0.5714842261948875	-0.2261371859315055	1.8323158255113179	-0.5124921527336083	-0.23662003094534353	1.7017755743890748	-0.49134642005037005													-0.1919361186562918	1.836258698896067	-0.6228262300022167	-0.19660589373114373	1.7108235963712395	-0.5663782117765784	-0.20159217483992814	1.5918433066631228	-0.5385134419871308	-0.19814252813213068	1.567022020601447	-0.6111987749899574	-0.18882516944196612	1.574156056342757	-0.6088389885827092	-0.20941344963352124	1.603583599768741	-0.5126171824388244	-0.20610561886452336	1.9813184160704842	-0.5769686251408677	-0.21250767274856724	2.046768381966876	-0.6225418240859389	-1.7506048992683638	1.8893144908399773	1.183703760682532	-0.24522234515918445	1.896269508244705	-0.4898227550373013	-0.24306511949417528	1.9303868210278774	-0.5498888309195991	-0.1756012665752235	1.9833036092899787	-0.6552614835150908	-0.1675820533987693	1.9082044152582942	-0.6717963350572225	-0.16664289795787932	1.8335652343615296	-0.6828471106250686
74	2.466666666666667	-0.20765192968959006	1.8370236836256058	-0.5718840083359301	-0.2249432469883983	1.834121836750983	-0.5181505200409752	-0.2355452944878234	1.7022073053966642	-0.4926169699072393													-0.18939082720951145	1.838289687318561	-0.6256691021131788	-0.1945956694691143	1.7114268306783953	-0.5687038540360801	-0.201687170190874	1.5915128719122693	-0.540633711047548	-0.19817869604322544	1.5644157390081248	-0.6106308559871934	-0.1866314063170977	1.5735328943016247	-0.6109775377168187	-0.20941344963352124	1.603583599768741	-0.5126171824388244	-0.20394816607218458	1.981550394212571	-0.5792733016487813	-0.21039364079415301	2.04649615545824	-0.6247077652490707	-1.7470130782147506	1.88746646103576	1.1793769746167855	-0.24322292482852237	1.8994517514544649	-0.4924235537239731	-0.22418606596575566	1.9459723832089242	-0.5737501177918793	-0.1754869940920671	1.983316244827292	-0.6554785198249873	-0.16707846684809188	1.908744363721702	-0.6804782338579892	-0.16732524151601633	1.836406437868568	-0.6863551831181276
75	2.5	-0.20769796325952206	1.834569256278652	-0.5715978113389658	-0.22495978916706777	1.8318705650633924	-0.5178668470843292	-0.23584375712718264	1.701237719468053	-0.4922508958283785													-0.18757687672314569	1.8347024852768348	-0.6273752622142903	-0.19438804093430087	1.7102213212437058	-0.5688748455181095	-0.20178216554181985	1.5911824371614156	-0.5427539801079653	-0.20217959536419067	1.5656708232913852	-0.6067940574210279	-0.18968303394854236	1.573536286073499	-0.6120692396272998	-0.20941344963352124	1.603583599768741	-0.5126171824388244	-0.20282930495868	1.9816767631171754	-0.5844731797873537	-0.2075199633980023	2.0461096011239346	-0.624058850356346	-1.7557610401579284	1.8874494151002046	1.1952983107053865	-0.2421739879911331	1.8989280946246518	-0.4891958385163281	-0.23316875671764856	1.938377226322451	-0.5562464367367913	-0.1741579125756077	1.9835518985970777	-0.6607393546228569	-0.16499703479831604	1.9066363954929582	-0.6827836813913943	-0.1653846540231636	1.8349024671288823	-0.6883863772602612
76	2.533333333333333	-0.20557681003252345	1.8368812780744086	-0.5741927704178639	-0.2227379694328835	1.8334192910683724	-0.5203584271859921	-0.23519629144607374	1.701723678707232	-0.4951376811765972													-0.1853413700024526	1.837231235791393	-0.6300755149442036	-0.1921400795803211	1.7118851616942097	-0.5715665050500306	-0.2018771608927657	1.590852002410562	-0.5448742491683825	-0.19905321915292465	1.5655869725137797	-0.6057356354525191	-0.18889935988903317	1.5748221292906548	-0.6084873795340382	-0.20941344963352124	1.603583599768741	-0.5126171824388244	-0.20085639499272967	1.980444229259671	-0.5867824614180334	-0.20743555165298846	2.0459108708464284	-0.6241540306634319	-1.7550627188906578	1.8874789178015008	1.1945517791600058	-0.24228292216982095	1.900285940017773	-0.48936389804746455	-0.2385854718306863	1.9360518649034224	-0.5547357920730819	-0.1720809212323487	1.9823861693768576	-0.6631257312084391	-0.16368214329025987	1.904592604091028	-0.6882443584180564	-0.16612316758942014	1.8337362860130078	-0.6917009949838544
77	2.566666666666667	-0.2056032612388581	1.8348173227852476	-0.5739508244513543	-0.22093787530534495	1.8329777539662642	-0.5222966084714188	-0.23454882576496483	1.7022096379464113	-0.4980244665248158													-0.1853857768136455	1.8355077306762397	-0.629903880132046	-0.1953493435998295	1.7110391845106012	-0.5720832300079265	-0.20192203313769921	1.5902767959999207	-0.5425444576559069	-0.19998231694416932	1.5656936699857353	-0.6090531193284313	-0.18963512943976227	1.5736764887425045	-0.6121037484975016	-0.20941344963352124	1.603583599768741	-0.5126171824388244	-0.2006579145526565	1.9815095073092022	-0.5869876869246324	-0.20537307387888246	2.0457986947563156	-0.6263225149829439	-1.7549682354782579	1.8875671681948865	1.194379899597161	-0.24211995950086873	1.9000134204920174	-0.48919426596236476	-0.23052047625988317	1.9460600214585644	-0.5669966819844887	-0.16992320706438244	1.9827981057781763	-0.6655208168255887	-0.16362821716246256	1.9045086847093813	-0.6884046035038281	-0.16699502333818617	1.8347782944410456	-0.6949021931474019
78	2.6	-0.20558024980923317	1.8372187681376444	-0.5743520214658244	-0.22092226007475715	1.8352520706035607	-0.5227336438507743	-0.23653328875552573	1.702277847086911	-0.49583104697869324													-0.18619634572375868	1.8379335364945837	-0.6332903386065137	-0.19510379712256126	1.7094657554867934	-0.5721374713150551	-0.20196690538263273	1.5897015895892794	-0.5402146661434313	-0.19717526119790443	1.5644177998427187	-0.6074334572431616	-0.18657089793590148	1.5733642401339125	-0.6109681009284975	-0.20941344963352124	1.603583599768741	-0.5126171824388244	-0.20064645877522186	1.981425789967493	-0.5869914073884708	-0.20536787739827614	2.0448991208924685	-0.6265008135894501	-1.745265054335859	1.8875650069152707	1.177370286500524	-0.23902695073935126	1.9005459215881173	-0.4882959605828157	-0.2316970602007703	1.944173885414816	-0.561586492717041	-0.16994260102859352	1.9824802579310903	-0.6654929280732088	-0.16362268456100332	1.9043156408820332	-0.6884203735005476	-0.1685175126545461	1.8339735427333168	-0.7011146286105941
79	2.6333333333333333	-0.20573418829347712	1.8359364233318602	-0.5741894849684445	-0.2208818181693355	1.8349577757126077	-0.52276181658422	-0.23652335882083964	1.702163236868624	-0.49581854372296247													-0.18618738741741953	1.8380107526548828	-0.6333587117833481	-0.19540729292076578	1.711331806294718	-0.5720103997268062	-0.20201177762756628	1.589126383178638	-0.5378848746309556	-0.19723576570500628	1.5644896681789018	-0.6074050161450162	-0.18860397702442117	1.5731737538395507	-0.6088707999291297	-0.20941344963352124	1.603583599768741	-0.5126171824388244	-0.20073540474708226	1.9804527426833085	-0.5869521886199129	-0.2032066617694636	2.0463115497518967	-0.628634543951289	-1.7476043413084879	1.889583741948752	1.180431193031233	-0.24209123678815367	1.902112167417039	-0.4895980930476379	-0.2383243605280948	1.9390694126852819	-0.5637734518590243	-0.16717022616996122	1.9811458816847625	-0.6646852433411949	-0.16353999447207382	1.9034603011112228	-0.6882453098788351	-0.16934407620001926	1.8332664908745155	-0.7040608408742124
80	2.6666666666666665	-0.20576670045122336	1.8332921096209074	-0.5737830020553313	-0.22093778950191328	1.8325554468861687	-0.5223956734143306	-0.23667119178668747	1.7003352167330872	-0.49551912848951607													-0.18536631078932012	1.8353630810038102	-0.6298943115549018	-0.19427680231467526	1.7097151811542857	-0.5689184767261033	-0.2020566498724998	1.5885511767679967	-0.53555508311848	-0.19589083217281952	1.5639831157796342	-0.6128427353521452	-0.1864564082533521	1.572905407516269	-0.611022963490931	-0.20941344963352124	1.603583599768741	-0.5126171824388244	-0.2006572806673825	1.9816640807448629	-0.5869999407208618	-0.2019671606693362	2.046492025491587	-0.6337001443260745	-1.7472925969071071	1.8897285291640864	1.179853299145389	-0.24309830293843035	1.9020974847922798	-0.4929256149898873	-0.2397684498551954	1.9475610404362473	-0.5796840770257191	-0.16916511883264326	1.9822715581118577	-0.6624210498889499	-0.163786592752378	1.903067563513833	-0.6882520238716597	-0.16562671966725503	1.8346100106515932	-0.7003706267818086
